<svg width="16" height="16" viewBox="0 0 16 16" fill="none" xmlns="http://www.w3.org/2000/svg">
<g clip-path="url(#clip0_232_317)">
<path d="M8.0001 14.2858C11.5091 14.2858 14.3537 11.4715 14.3537 7.99982C14.3537 4.52818 11.5091 1.71387 8.0001 1.71387M8.0001 14.2858C4.4911 14.2858 1.64648 11.4715 1.64648 7.99982C1.64648 4.52818 4.4911 1.71387 8.0001 1.71387M8.0001 14.2858C6.38786 14.2858 5.08087 11.4715 5.08087 7.99982C5.08087 4.52818 6.38786 1.71387 8.0001 1.71387M8.0001 14.2858C9.61235 14.2858 10.9193 11.4715 10.9193 7.99982C10.9193 4.52818 9.61235 1.71387 8.0001 1.71387M14.182 7.99982H1.8182" stroke="black" stroke-width="1.6" stroke-linecap="square"/>
</g>
<defs>
<clipPath id="clip0_232_317">
<rect width="16" height="16" fill="white"/>
</clipPath>
</defs>
</svg>
