<svg width="74" height="32" viewBox="0 0 74 32" fill="none" xmlns="http://www.w3.org/2000/svg">
<path fill-rule="evenodd" clip-rule="evenodd" d="M13.7122 2.47913C14.3003 2.03801 14.4196 1.20368 13.9784 0.615549C13.5373 0.0274115 12.703 -0.0917942 12.1149 0.349322C10.8956 1.26384 8.47373 4.05022 6.81063 7.6827C5.50484 10.5348 5.11075 13.4236 5.56891 15.6947C6.02102 17.9352 7.45452 19.9593 9.97734 19.9721C11.3062 20.0138 12.3896 19.4649 13.2393 18.6781C13.6093 18.3355 13.9422 17.9421 14.2442 17.521C14.3848 17.8371 14.5606 18.1392 14.7769 18.4195C15.4816 19.332 16.5167 19.8818 17.798 20.0036C19.3745 20.1535 20.6246 19.3641 21.548 18.3888C22.4605 17.4247 23.1993 16.1349 23.8132 14.888C23.9263 14.6583 24.0377 14.4244 24.1472 14.1893C24.6485 15.0962 25.379 15.8965 26.3354 16.4495C26.6753 16.6461 27.0395 16.7956 27.4205 16.9033C27.7255 17.6242 28.195 18.2812 28.8188 18.8053C30.2128 19.9763 32.2098 20.3521 34.4687 19.5901C36.3434 18.9577 38.0516 17.537 39.5462 16.054C39.5705 16.6825 39.6985 17.3102 39.9899 17.876C40.5849 19.0322 41.7173 19.66 43.1654 19.66C43.8967 19.66 44.7902 19.4258 45.6611 19.0759C46.2267 18.8485 46.8272 18.5544 47.4271 18.1963C47.2333 18.7143 47.0358 19.2263 46.8344 19.7298C45.6268 20.4696 44.2758 21.1064 42.7946 21.5359C40.9806 22.062 39.6544 22.4756 38.6813 22.8975C37.702 23.3219 36.9649 23.8022 36.407 24.5195C35.379 25.693 35.1388 27.4675 35.6381 28.9361C36.1851 30.5454 37.6255 31.8419 39.8746 31.9149C41.5126 31.9678 42.9226 31.0806 44.0672 29.9161C45.2245 28.7396 46.2758 27.1179 47.2251 25.3067C47.8393 24.1356 48.4254 22.855 48.9817 21.5155C51.846 19.5927 53.9 17.2327 55.0435 15.6293C55.097 15.9423 55.1732 16.2295 55.2701 16.49C55.4886 17.0799 55.8706 17.6814 56.4865 18.0082C56.8095 18.1795 57.2087 18.277 57.6381 18.2094C58.0713 18.1412 58.4305 17.921 58.6905 17.6371C59.0246 17.2734 59.4584 16.6989 59.9184 16.057C59.9963 16.7952 60.2157 17.5283 60.6551 18.1801C61.5455 19.4987 62.8574 20.0833 64.2329 20.0133C65.5331 19.9472 66.7793 19.31 67.7739 18.4346C68.3257 17.9487 68.3792 17.1076 67.8936 16.5557C67.4075 16.0039 66.5666 15.9504 66.0154 16.4362C65.3304 17.0386 64.6338 17.3272 64.0981 17.3546C63.6381 17.3779 63.2216 17.2235 62.8619 16.6906C62.5016 16.1564 62.4348 15.1828 62.7433 13.941C63.0418 12.739 63.5847 11.7217 63.8665 11.3805C65.1093 9.87625 66.1423 9.79345 66.7008 9.86405C66.9854 9.90008 67.2181 9.98706 67.3713 10.0608C67.4476 10.1062 67.5083 10.1476 67.5511 10.1773L67.5556 10.1803C67.5818 10.1987 67.6285 10.2297 67.6837 10.2611C67.7048 10.2731 67.7694 10.3097 67.8569 10.3443C67.8919 10.3583 68.0011 10.4006 68.1464 10.4232C68.2188 10.4344 68.3653 10.4514 68.5468 10.4244C68.7278 10.3975 69.058 10.308 69.3353 10.0038C69.631 9.67935 69.6922 9.30291 69.6811 9.05022C69.6711 8.82157 69.6054 8.6509 69.5703 8.5721C69.5001 8.41223 69.4144 8.30442 69.3904 8.2743C69.3264 8.19394 69.2657 8.13826 69.2484 8.12206C69.1994 8.07645 69.1538 8.04098 69.1276 8.02099C69.0157 7.93557 68.8636 7.83795 68.6838 7.74245C68.6721 7.7361 68.6598 7.72964 68.6476 7.72318C68.1782 7.45768 67.3846 7.11343 66.3444 7.10318C64.8164 7.08809 63.0518 7.78856 61.2047 9.78209C60.595 10.4393 59.6878 11.7434 58.8732 12.9134L58.8398 12.9617C58.3976 13.5968 57.9811 14.1945 57.6197 14.6936C57.5941 14.0628 57.6843 13.1507 58.049 11.917C58.2111 11.3673 58.3341 10.9231 58.4193 10.5774C58.4945 10.267 58.5669 9.93327 58.5769 9.65852C58.5797 9.58123 58.5803 9.46184 58.558 9.32497C58.5407 9.21488 58.4856 8.93127 58.264 8.6573C57.9744 8.29836 57.5245 8.11031 57.0651 8.15753C56.7137 8.19356 56.4737 8.35465 56.3846 8.41902C56.1897 8.5593 56.0549 8.73003 55.9981 8.80309C55.9213 8.90232 55.8467 9.01129 55.7793 9.1157C55.5195 9.51842 55.1628 10.1617 54.7786 10.856L54.7278 10.948C54.3437 11.6419 53.9111 12.4237 53.4547 13.2027C53.0375 13.9139 52.1556 15.1515 50.862 16.4822C51.2874 15.2275 51.6864 13.9747 52.0557 12.7596C52.6169 10.9133 52.3929 9.4928 51.7499 8.4648C51.1445 7.49582 50.2935 7.08225 49.9723 6.94743C49.208 6.61984 48.1953 6.40962 46.9464 6.65286C46.8636 6.66889 46.7802 6.68688 46.6964 6.70687C45.6241 6.93668 44.4607 7.46319 43.2996 8.40198C43.1494 8.5236 42.9972 8.65285 42.8437 8.78866C42.8377 8.79367 42.8316 8.7988 42.8255 8.80387C42.5782 8.99787 42.3415 9.22212 42.1158 9.46824C41.3636 10.2034 40.5904 11.0488 39.8282 11.8816C39.3608 12.3926 38.8972 12.8989 38.4459 13.3721C36.7512 15.1491 35.1574 16.5481 33.6176 17.0674C32.3084 17.5093 31.3907 17.3256 30.7932 16.9561C31.3457 16.8485 31.891 16.6936 32.4117 16.5044C34.4596 15.7607 36.5205 14.3526 37.764 12.4346C38.5761 11.1818 38.7557 9.60345 37.8213 8.38043C36.9112 7.18899 35.3074 6.8183 33.5941 7.09962C29.8851 7.70854 27.6534 10.7531 27.1145 13.7303C26.5739 13.2194 26.199 12.5023 26.0535 11.7119C25.8615 10.6698 26.0978 9.67807 26.6649 9.03173C27.144 8.48551 27.0967 7.65597 26.5585 7.16783C26.0202 6.6797 25.1901 6.71333 24.6931 7.2434C24.0497 7.92983 23.5033 9.0804 23.0289 10.141C22.8657 10.5062 22.7045 10.8771 22.542 11.251C22.1871 12.0669 21.8262 12.8967 21.4248 13.7119C20.8408 14.8978 20.2441 15.8935 19.6145 16.5586C18.9961 17.2122 18.4976 17.3959 18.0498 17.3532C17.426 17.2941 17.0939 17.0641 16.8843 16.7926C16.6456 16.4835 16.4632 15.982 16.4247 15.2499C16.3615 14.0466 16.7064 12.5191 17.3479 11.0674C17.5049 10.7226 17.6597 10.4053 17.8164 10.1189C18.2379 9.47058 18.5465 8.97181 18.7505 8.6259C18.8534 8.45154 18.9364 8.30476 18.9953 8.19233C19.0219 8.14149 19.0583 8.0696 19.0894 7.99587C19.1004 7.96987 19.1383 7.87988 19.1658 7.76495L19.1662 7.763C19.1764 7.72107 19.2172 7.55017 19.1977 7.33155C19.1877 7.2179 19.1526 6.97967 18.9919 6.72898C18.8016 6.43229 18.489 6.20626 18.1083 6.1371C17.7845 6.07824 17.5276 6.15386 17.4064 6.19874C17.2742 6.24769 17.1778 6.30733 17.1263 6.3418C17.0235 6.41057 16.9528 6.47884 16.9256 6.50574C16.8632 6.56727 16.8174 6.62412 16.7984 6.64812C16.7528 6.70565 16.7095 6.76707 16.6755 6.81691C16.6028 6.92343 16.511 7.06693 16.4041 7.24089C16.1882 7.59255 15.8861 8.10863 15.5093 8.78916C15.3 9.1671 15.1041 9.56107 14.9245 9.96574C14.6661 10.5327 14.419 11.1289 14.1787 11.7092L14.1565 11.7628C13.7359 12.7784 13.326 13.7686 12.8672 14.6559C12.3965 15.5666 11.9238 16.2677 11.4306 16.7246C10.9652 17.1554 10.5305 17.3285 10.0507 17.3109C10.0344 17.3104 10.0181 17.3101 10.0017 17.3101C9.27209 17.3101 8.50669 16.7943 8.17854 15.1681C7.85518 13.5652 8.10442 11.2521 9.23127 8.79095C10.7515 5.47048 12.9211 3.07246 13.7122 2.47913ZM58.4861 3.16164C58.215 2.91815 57.7828 3.09426 57.7589 3.45773L57.6999 4.37059C57.6932 4.46832 57.6542 4.56104 57.5891 4.63389L56.9771 5.31414C56.7337 5.58505 56.9097 6.01743 57.2733 6.0411L58.186 6.1004C58.284 6.10675 58.3764 6.14584 58.4494 6.21127L59.1299 6.82286C59.4011 7.06638 59.8332 6.89024 59.8566 6.52679L59.9156 5.61394C59.9223 5.51623 59.9618 5.42346 60.027 5.35062L60.6389 4.67036C60.8823 4.39945 60.7063 3.96711 60.3421 3.94343L59.4295 3.88411C59.332 3.87776 59.239 3.83868 59.1661 3.77323L58.4861 3.16164ZM43.1594 12.5951C43.4486 12.0625 43.7615 11.618 44.0601 11.2876C44.2245 11.129 44.3868 10.9775 44.5479 10.8339C45.719 9.87954 46.6279 9.46385 47.2924 9.30175C48.0435 9.15006 48.618 9.26305 48.9265 9.39585L48.9398 9.40114C48.9751 9.41607 49.192 9.52031 49.3768 9.75335C49.5358 9.95332 49.7356 10.3242 49.6809 11.0248C49.5463 12.7509 48.4083 14.2407 46.8962 15.3561C46.1544 15.9033 45.3674 16.3248 44.6682 16.6056C43.9403 16.898 43.4099 16.9977 43.1654 16.9977C42.5622 16.9977 42.4298 16.7994 42.3569 16.6575C42.2162 16.3841 42.1362 15.8417 42.2819 15.0225C42.421 14.2388 42.7378 13.3717 43.1594 12.5951ZM31.5028 14.0022C30.8527 14.2381 30.2431 14.3763 29.6976 14.4324C29.998 12.2405 31.5785 10.1284 34.0254 9.72668C35.2039 9.53323 35.6198 9.88416 35.7058 9.99664C35.7674 10.0774 35.9198 10.3852 35.53 10.9864C34.6702 12.3125 33.1374 13.4084 31.5028 14.0022ZM50.8007 23.3324C50.8089 22.5974 51.4111 22.0076 52.1462 22.0154C58.7462 22.0846 65.3555 22.5491 71.9931 23.5617C72.7193 23.6725 73.2188 24.3514 73.108 25.0783C72.9977 25.8051 72.3184 26.3043 71.5911 26.1935C65.0954 25.2025 58.612 24.7455 52.118 24.6775C51.3829 24.6697 50.7935 24.0675 50.8007 23.3324ZM34.5778 23.7492C34.6041 24.484 34.0299 25.1009 33.2952 25.127C14.9507 25.7836 6.05699 28.1658 2.1295 29.2178C1.96929 29.2606 1.81741 29.3014 1.67343 29.3396C0.962941 29.5285 0.233909 29.1056 0.0450005 28.3952C-0.143852 27.6847 0.278997 26.9556 0.989486 26.7667C1.13049 26.7291 1.27883 26.6895 1.43463 26.6478C5.47626 25.5663 14.5683 23.1334 33.1999 22.4667C33.9347 22.4403 34.5516 23.0146 34.5778 23.7492ZM43.5357 24.0929C44.086 23.9334 44.6196 23.75 45.1362 23.5467C45.0468 23.724 44.9574 23.8989 44.8675 24.0707C43.9723 25.7779 43.0634 27.14 42.1693 28.0496C41.2631 28.9711 40.5302 29.2724 39.9607 29.2539C38.8514 29.218 38.3592 28.6694 38.1588 28.0793C37.9166 27.3672 38.1011 26.6144 38.4207 26.2613C38.4468 26.2323 38.4717 26.2023 38.4952 26.1714C38.6783 25.9292 38.9728 25.6728 39.7405 25.3402C40.5346 24.9956 41.7019 24.6248 43.5357 24.0929Z" fill="white"/>
</svg>
