<svg width="24" height="24" viewBox="0 0 24 24" fill="none" xmlns="http://www.w3.org/2000/svg">
<g clip-path="url(#clip0_136_2746)">
<path fill-rule="evenodd" clip-rule="evenodd" d="M5.69844 10.7597L11.258 5.20018C12.4344 4.02377 14.3418 4.02377 15.5182 5.20018C16.6946 6.37658 16.6946 8.28392 15.5182 9.46033L9.94129 15.0372C9.58463 15.3938 9.17673 15.6766 8.7176 15.8856C8.25848 16.0945 7.7773 16.2163 7.27407 16.2509L6.25884 16.3208C5.22698 16.3919 4.36636 15.5425 4.4239 14.5098L4.48122 13.4814C4.50983 12.9684 4.62901 12.4773 4.83878 12.0083C5.04855 11.5392 5.3351 11.123 5.69844 10.7597ZM14.1387 8.29416L14.2454 8.18755C14.7189 7.71407 14.7189 6.94642 14.2454 6.47296C13.7718 5.99948 13.0042 5.99948 12.5307 6.47296L12.4241 6.57957L14.1387 8.29416ZM11.1513 7.85235L12.8659 9.56694L8.66851 13.7644C8.46552 13.9673 8.23337 14.1283 7.97205 14.2472C7.71069 14.3662 7.43681 14.4356 7.15039 14.4553L6.22618 14.5189L6.27842 13.5816C6.29471 13.2896 6.36255 13.0101 6.48195 12.7431C6.60134 12.4761 6.76443 12.2393 6.97122 12.0325L11.1513 7.85235ZM4.30603 18.497C4.30603 18.9042 4.57644 19.2482 4.94748 19.3593C5.90643 19.6692 6.97071 19.7563 8.14031 19.6208C8.67614 19.5587 9.18957 19.4516 9.68061 19.2995C10.1876 19.1425 10.6382 18.9474 11.0322 18.7143C11.3387 18.5331 11.7495 18.2482 12.2648 17.8599C12.3488 17.7966 12.4275 17.7381 12.5009 17.6844C12.4778 17.7701 12.4616 17.8531 12.4525 17.9334C12.4217 18.2046 12.4638 18.4558 12.5788 18.6871C12.6996 18.93 12.8888 19.1262 13.1467 19.2756C13.6662 19.5769 14.2572 19.6643 14.9196 19.5378C15.1451 19.4947 15.3952 19.4232 15.67 19.3234C15.8215 19.2682 16.0448 19.1789 16.3398 19.0553C16.6295 18.9339 16.8442 18.8481 16.9838 18.798C17.1953 18.7221 17.3808 18.6696 17.5405 18.6405C17.857 18.5828 18.1322 18.6132 18.3659 18.7316C18.4932 18.8006 18.639 18.8397 18.794 18.8397C19.291 18.8397 19.694 18.4368 19.694 17.9397C19.694 17.5849 19.4887 17.2781 19.1904 17.1315C18.5943 16.8259 17.9368 16.7387 17.2178 16.8697C16.9609 16.9165 16.6802 16.9945 16.3757 17.1039C16.2066 17.1645 15.9628 17.2616 15.6442 17.3951C15.1416 17.6056 14.7876 17.7305 14.5821 17.7698C14.5199 17.7816 14.4612 17.7889 14.4061 17.7914C14.4586 17.6845 14.4986 17.5986 14.5259 17.5337C14.5967 17.3653 14.644 17.2071 14.6678 17.0592C14.707 16.8157 14.6881 16.5856 14.6113 16.369C14.5224 16.1182 14.3654 15.9079 14.1404 15.7381C13.8611 15.5273 13.5478 15.4238 13.2004 15.4276C12.9425 15.4305 12.6734 15.4967 12.3928 15.6261C12.2072 15.7118 11.9978 15.8349 11.7646 15.9954C11.6378 16.0827 11.4434 16.2251 11.1815 16.4224C10.7198 16.7704 10.3645 17.0179 10.1157 17.1651C9.84301 17.3265 9.52046 17.4648 9.14809 17.5801C8.76337 17.6993 8.35837 17.7835 7.9331 17.8328C7.02388 17.9381 6.21419 17.8763 5.50402 17.6475C5.41075 17.6148 5.31047 17.597 5.20603 17.597C4.70897 17.597 4.30603 18 4.30603 18.497Z" fill="white"/>
</g>
<defs>
<clipPath id="clip0_136_2746">
<rect width="16" height="16" fill="white" transform="translate(4 4.00024)"/>
</clipPath>
</defs>
</svg>
