<svg width="24" height="24" viewBox="0 0 24 24" fill="none" xmlns="http://www.w3.org/2000/svg">
<path fill-rule="evenodd" clip-rule="evenodd" d="M8.19431 6.86445H10.4697C10.9668 6.86445 11.3697 6.46151 11.3697 5.96445C11.3697 5.4674 10.9668 5.06445 10.4697 5.06445H8.19431C6.59269 5.06445 5.29431 6.36283 5.29431 7.96445V16.0236C5.29431 17.6252 6.59269 18.9236 8.19431 18.9236H15.8572C17.4588 18.9236 18.7571 17.6252 18.7571 16.0236V13.5784C18.7571 13.0813 18.3542 12.6784 17.8571 12.6784C17.3601 12.6784 16.9571 13.0813 16.9571 13.5784V16.0236C16.9571 16.6311 16.4647 17.1236 15.8572 17.1236H8.19431C7.5868 17.1236 7.09431 16.6311 7.09431 16.0236V7.96445C7.09431 7.35694 7.5868 6.86445 8.19431 6.86445ZM10.3373 10.8452V11.5168C10.3373 12.5661 11.1879 13.4168 12.2373 13.4168H12.9088C13.678 13.4168 14.4156 13.1112 14.9595 12.5674L17.7437 9.78317C18.7855 8.74134 18.7855 7.0522 17.7437 6.01038C16.7018 4.96855 15.0127 4.96855 13.9709 6.01038L11.1867 8.79459C10.6428 9.33844 10.3373 10.0761 10.3373 10.8452ZM12.2373 11.6168C12.1821 11.6168 12.1373 11.572 12.1373 11.5168V10.8452C12.1373 10.5535 12.2532 10.2737 12.4595 10.0674L15.2437 7.28317C15.5826 6.94428 16.132 6.94428 16.4709 7.28317C16.8098 7.62205 16.8098 8.17149 16.4709 8.51037L13.6867 11.2946C13.4804 11.5009 13.2006 11.6168 12.9088 11.6168H12.2373Z" fill="white" fill-opacity="0.6"/>
</svg>
