<svg width="24" height="24" viewBox="0 0 24 24" fill="none" xmlns="http://www.w3.org/2000/svg">
<path d="M7 14.1435V6.72884C7 6.45785 7.15302 6.21052 7.40446 6.10944C7.93067 5.89792 8.89672 5.57227 9.85709 5.57227C11.2794 5.57227 12.7204 7.00081 14.1427 7.00081C14.7772 7.00081 15.414 6.85871 15.9249 6.70128C16.4318 6.54508 16.9998 6.90958 16.9998 7.44002V13.7013C16.9998 13.9723 16.8468 14.2195 16.5953 14.3206C16.0691 14.5322 15.1031 14.8578 14.1427 14.8578C12.7204 14.8578 11.2794 13.4293 9.85709 13.4293C8.43477 13.4293 7 14.1435 7 14.1435ZM7 14.1435V18.4292" stroke="white" stroke-width="1.8" stroke-linecap="round" stroke-linejoin="round"/>
</svg>
