<svg width="16" height="16" viewBox="0 0 16 16" fill="none" xmlns="http://www.w3.org/2000/svg">
<g clip-path="url(#clip0_139_3817)">
<path fill-rule="evenodd" clip-rule="evenodd" d="M8.00217 0.813477C5.36225 0.813477 3.22217 2.95355 3.22217 5.59347C3.22217 6.17337 3.69227 6.64347 4.27217 6.64347C4.85207 6.64347 5.32217 6.17337 5.32217 5.59347C5.32217 4.11335 6.52205 2.91347 8.00217 2.91347C9.48229 2.91347 10.6822 4.11335 10.6822 5.59347C10.6822 6.38142 10.2005 7.05625 9.23717 7.61795C8.14623 8.25407 7.45099 8.93816 7.15146 9.6702L7.14257 9.69194L7.13465 9.71406C7.04288 9.97052 6.98108 10.2827 6.94924 10.6506C6.94601 10.6841 6.94436 10.7181 6.94436 10.7524C6.94436 11.3324 7.41446 11.8025 7.99436 11.8025C8.54768 11.8025 9.00103 11.3745 9.04143 10.8315C9.05626 10.6595 9.07729 10.5302 9.10454 10.4435C9.23476 10.156 9.63157 9.8189 10.295 9.43208C11.9531 8.46524 12.7822 7.18571 12.7822 5.59347C12.7822 2.95355 10.6421 0.813477 8.00217 0.813477ZM8.00007 15.1707C8.66281 15.1707 9.20007 14.6334 9.20007 13.9707C9.20007 13.308 8.66281 12.7707 8.00007 12.7707C7.33733 12.7707 6.80007 13.308 6.80007 13.9707C6.80007 14.6334 7.33733 15.1707 8.00007 15.1707Z" fill="#FFCD29"/>
</g>
<defs>
<clipPath id="clip0_139_3817">
<rect width="16" height="16" fill="white" transform="translate(0 0.000244141)"/>
</clipPath>
</defs>
</svg>
