<svg width="24" height="24" viewBox="0 0 24 24" fill="none" xmlns="http://www.w3.org/2000/svg">
<path d="M11.64 10.7901L10.83 8.60011C10.73 8.34011 10.68 8.07011 10.68 7.79011C10.68 7.17011 11 6.86011 11.64 6.86011C12.26 6.86011 12.57 7.16011 12.57 7.76011C12.57 8.09011 12.52 8.37011 12.42 8.60011L11.64 10.7901ZM10.35 11.4801L8.04001 11.0601C7.75001 11.0101 7.46501 10.8951 7.18501 10.7151C6.90501 10.5351 6.76501 10.3151 6.76501 10.0551C6.76501 9.90511 6.80501 9.75011 6.88501 9.59011C6.96501 9.42011 7.07501 9.28011 7.21501 9.17011C7.35501 9.05011 7.50501 8.99011 7.66501 8.99011C8.04501 8.99011 8.44001 9.23011 8.85001 9.71011L10.35 11.4801ZM12.93 11.4801L14.43 9.71011C14.6 9.51011 14.79 9.34011 15 9.20011C15.22 9.06011 15.42 8.99011 15.6 8.99011C15.76 8.99011 15.905 9.05011 16.035 9.17011C16.175 9.28011 16.285 9.42011 16.365 9.59011C16.445 9.75011 16.485 9.90511 16.485 10.0551C16.485 10.2251 16.42 10.3851 16.29 10.5351C16.16 10.6751 15.995 10.7901 15.795 10.8801C15.605 10.9701 15.41 11.0301 15.21 11.0601L12.93 11.4801ZM11.64 13.3701C11.33 13.3701 11.065 13.2651 10.845 13.0551C10.635 12.8451 10.53 12.5801 10.53 12.2601C10.53 11.9501 10.635 11.6901 10.845 11.4801C11.065 11.2601 11.33 11.1501 11.64 11.1501C11.95 11.1501 12.21 11.2601 12.42 11.4801C12.64 11.6901 12.75 11.9501 12.75 12.2601C12.75 12.5701 12.64 12.8351 12.42 13.0551C12.21 13.2651 11.95 13.3701 11.64 13.3701ZM7.65001 15.5301C7.48001 15.5301 7.32501 15.4751 7.18501 15.3651C7.05501 15.2451 6.95001 15.1001 6.87001 14.9301C6.80001 14.7601 6.76501 14.6051 6.76501 14.4651C6.76501 14.2051 6.90501 13.9851 7.18501 13.8051C7.46501 13.6251 7.75001 13.5101 8.04001 13.4601L10.35 13.0401L8.85001 14.8101C8.45001 15.2901 8.05001 15.5301 7.65001 15.5301ZM15.585 15.5301C15.405 15.5301 15.21 15.4601 15 15.3201C14.79 15.1701 14.6 15.0001 14.43 14.8101L12.93 13.0401L15.21 13.4601C15.5 13.5101 15.785 13.6251 16.065 13.8051C16.345 13.9851 16.485 14.2051 16.485 14.4651C16.485 14.6951 16.4 14.9301 16.23 15.1701C16.07 15.4101 15.855 15.5301 15.585 15.5301ZM11.64 17.6601C11 17.6601 10.68 17.3201 10.68 16.6401C10.68 16.5201 10.695 16.4001 10.725 16.2801C10.755 16.1601 10.79 16.0401 10.83 15.9201L11.64 13.7301L12.42 15.9201C12.47 16.0501 12.505 16.1851 12.525 16.3251C12.555 16.4551 12.57 16.5901 12.57 16.7301C12.57 17.3501 12.26 17.6601 11.64 17.6601Z" fill="white"/>
</svg>
