<svg width="38" height="34" viewBox="0 0 38 34" fill="none" xmlns="http://www.w3.org/2000/svg">
<g clip-path="url(#clip0_253_291)">
<g filter="url(#filter0_dd_253_291)">
<path d="M22.5551 28.7464L31.64 16.799C33.9862 13.7137 31.7857 9.27614 27.9097 9.27614L9.73883 9.27612C5.86265 9.27612 3.66227 13.7139 6.00867 16.7993L15.0946 28.7466C16.9701 31.2127 20.6799 31.2125 22.5551 28.7464Z" fill="url(#paint0_radial_253_291)"/>
</g>
<path d="M14.4554 4.38872C12.7648 6.01844 10.8958 7.96073 9.30666 9.95304C7.92997 11.679 6.67398 13.9722 5.61368 16.2542C3.59943 20.5892 7.00556 25.1902 11.7858 25.1902H26.8492C31.8415 25.1902 35.251 20.1797 32.9224 15.7636C31.8054 13.6454 30.554 11.5539 29.2772 9.95302C27.6943 7.96851 25.8416 6.0317 24.1669 4.40429C21.4401 1.75457 17.1928 1.74999 14.4554 4.38872Z" fill="url(#paint1_radial_253_291)"/>
<mask id="mask0_253_291" style="mask-type:alpha" maskUnits="userSpaceOnUse" x="5" y="2" width="29" height="24">
<path d="M14.4556 4.3886C12.765 6.01832 10.896 7.96061 9.3069 9.95292C7.93022 11.6789 6.67423 13.972 5.61392 16.2541C3.59967 20.5891 7.0058 25.1901 11.786 25.1901H26.8495C31.8417 25.1901 35.2512 20.1795 32.9227 15.7635C31.8057 13.6453 30.5543 11.5538 29.2774 9.95289C27.6945 7.96839 25.8418 6.03158 24.1671 4.40417C21.4403 1.75445 17.193 1.74986 14.4556 4.3886Z" fill="url(#paint2_radial_253_291)"/>
</mask>
<g mask="url(#mask0_253_291)">
<g opacity="0.5">
<g filter="url(#filter1_f_253_291)">
<path d="M5.29041 34.5201C10.6806 34.5201 15.0503 30.3433 15.0503 25.1909C15.0503 20.0385 10.6806 15.8617 5.29041 15.8617C-0.0998302 15.8617 -4.46948 20.0385 -4.46948 25.1909C-4.46948 30.3433 -0.0998328 34.5201 5.29041 34.5201Z" fill="url(#paint3_radial_253_291)"/>
</g>
</g>
</g>
<mask id="mask1_253_291" style="mask-type:alpha" maskUnits="userSpaceOnUse" x="5" y="2" width="29" height="24">
<path d="M14.4556 4.3886C12.765 6.01832 10.896 7.96061 9.3069 9.95292C7.93022 11.6789 6.67423 13.972 5.61392 16.2541C3.59967 20.5891 7.0058 25.1901 11.786 25.1901H26.8495C31.8417 25.1901 35.2512 20.1795 32.9227 15.7635C31.8057 13.6453 30.5543 11.5538 29.2774 9.95289C27.6945 7.96839 25.8418 6.03158 24.1671 4.40417C21.4403 1.75445 17.193 1.74986 14.4556 4.3886Z" fill="url(#paint4_radial_253_291)"/>
</mask>
<g mask="url(#mask1_253_291)">
<g opacity="0.5">
<g filter="url(#filter2_f_253_291)">
<path d="M34.4843 34.5203C39.8745 34.5203 44.2442 30.3434 44.2442 25.191C44.2442 20.0387 39.8745 15.8618 34.4843 15.8618C29.094 15.8618 24.7244 20.0387 24.7244 25.191C24.7244 30.3434 29.094 34.5203 34.4843 34.5203Z" fill="url(#paint5_radial_253_291)"/>
</g>
</g>
</g>
<mask id="mask2_253_291" style="mask-type:alpha" maskUnits="userSpaceOnUse" x="5" y="2" width="29" height="24">
<path d="M14.4556 4.3886C12.765 6.01832 10.896 7.96061 9.3069 9.95292C7.93022 11.6789 6.67423 13.972 5.61392 16.2541C3.59967 20.5891 7.0058 25.1901 11.786 25.1901H26.8495C31.8417 25.1901 35.2512 20.1795 32.9227 15.7635C31.8057 13.6453 30.5543 11.5538 29.2774 9.95289C27.6945 7.96839 25.8418 6.03158 24.1671 4.40417C21.4403 1.75445 17.193 1.74986 14.4556 4.3886Z" fill="url(#paint6_radial_253_291)"/>
</mask>
<g mask="url(#mask2_253_291)">
<g opacity="0.5">
<g filter="url(#filter3_f_253_291)">
<path d="M18.8055 7.7384C22.8371 7.7384 26.1054 4.61434 26.1054 0.760619C26.1054 -3.0931 22.8371 -6.21716 18.8055 -6.21716C14.7739 -6.21716 11.5056 -3.0931 11.5056 0.760619C11.5056 4.61434 14.7739 7.7384 18.8055 7.7384Z" fill="url(#paint7_radial_253_291)"/>
</g>
</g>
</g>
<mask id="mask3_253_291" style="mask-type:alpha" maskUnits="userSpaceOnUse" x="5" y="2" width="29" height="24">
<path d="M14.4556 4.3886C12.765 6.01832 10.896 7.96061 9.3069 9.95292C7.93022 11.6789 6.67423 13.972 5.61392 16.2541C3.59967 20.5891 7.0058 25.1901 11.786 25.1901H26.8495C31.8417 25.1901 35.2512 20.1795 32.9227 15.7635C31.8057 13.6453 30.5543 11.5538 29.2774 9.95289C27.6945 7.96839 25.8418 6.03158 24.1671 4.40417C21.4403 1.75445 17.193 1.74986 14.4556 4.3886Z" fill="url(#paint8_radial_253_291)"/>
</mask>
<g mask="url(#mask3_253_291)">
<path fill-rule="evenodd" clip-rule="evenodd" d="M19.7586 9.68718C21.5624 9.68718 22.9637 7.73901 24.8533 7.73901C26.2211 7.73901 28.0579 8.81776 28.0579 11.5639C28.0579 14.3101 26.8609 15.1523 24.8533 15.1523C23.0721 15.1523 21.3327 13.6705 19.7586 13.6705C18.1845 13.6705 16.8569 15.1523 14.6393 15.1523C12.4217 15.1523 11.2317 14.3101 11.2317 11.5639C11.2317 8.81776 12.6869 7.73901 14.6393 7.73901C16.5917 7.73901 17.8021 9.68718 19.7586 9.68718Z" fill="#FFFAF8"/>
<path fill-rule="evenodd" clip-rule="evenodd" d="M19.7586 9.68718C21.5624 9.68718 22.9637 7.73901 24.8533 7.73901C26.2211 7.73901 28.0579 8.81776 28.0579 11.5639C28.0579 14.3101 26.8609 15.1523 24.8533 15.1523C23.0721 15.1523 21.3327 13.6705 19.7586 13.6705C18.1845 13.6705 16.8569 15.1523 14.6393 15.1523C12.4217 15.1523 11.2317 14.3101 11.2317 11.5639C11.2317 8.81776 12.6869 7.73901 14.6393 7.73901C16.5917 7.73901 17.8021 9.68718 19.7586 9.68718Z" fill="url(#paint9_linear_253_291)"/>
<path d="M16.5735 13.769C17.8059 13.769 18.805 12.7699 18.805 11.5374C18.805 10.3049 17.8059 9.30583 16.5734 9.30586C15.3409 9.30589 14.3418 10.305 14.3418 11.5375C14.3419 12.77 15.341 13.7691 16.5735 13.769Z" fill="url(#paint10_radial_253_291)"/>
<path d="M22.7158 13.7695C23.9483 13.7695 24.9474 12.7704 24.9473 11.5379C24.9473 10.3054 23.9482 9.30632 22.7157 9.30635C21.4832 9.30637 20.4842 10.3055 20.4842 11.538C20.4842 12.7704 21.4833 13.7695 22.7158 13.7695Z" fill="url(#paint11_radial_253_291)"/>
</g>
</g>
<defs>
<filter id="filter0_dd_253_291" x="2.56281" y="6.79499" width="32.5228" height="26.2822" filterUnits="userSpaceOnUse" color-interpolation-filters="sRGB">
<feFlood flood-opacity="0" result="BackgroundImageFix"/>
<feColorMatrix in="SourceAlpha" type="matrix" values="0 0 0 0 0 0 0 0 0 0 0 0 0 0 0 0 0 0 127 0" result="hardAlpha"/>
<feOffset/>
<feGaussianBlur stdDeviation="1.24057"/>
<feComposite in2="hardAlpha" operator="out"/>
<feColorMatrix type="matrix" values="0 0 0 0 1 0 0 0 0 1 0 0 0 0 1 0 0 0 0.5 0"/>
<feBlend mode="normal" in2="BackgroundImageFix" result="effect1_dropShadow_253_291"/>
<feColorMatrix in="SourceAlpha" type="matrix" values="0 0 0 0 0 0 0 0 0 0 0 0 0 0 0 0 0 0 127 0" result="hardAlpha"/>
<feOffset/>
<feGaussianBlur stdDeviation="0.310142"/>
<feComposite in2="hardAlpha" operator="out"/>
<feColorMatrix type="matrix" values="0 0 0 0 1 0 0 0 0 1 0 0 0 0 1 0 0 0 0.25 0"/>
<feBlend mode="normal" in2="effect1_dropShadow_253_291" result="effect2_dropShadow_253_291"/>
<feBlend mode="normal" in="SourceGraphic" in2="effect2_dropShadow_253_291" result="shape"/>
</filter>
<filter id="filter1_f_253_291" x="-5.58527" y="14.7459" width="21.7514" height="20.89" filterUnits="userSpaceOnUse" color-interpolation-filters="sRGB">
<feFlood flood-opacity="0" result="BackgroundImageFix"/>
<feBlend mode="normal" in="SourceGraphic" in2="BackgroundImageFix" result="shape"/>
<feGaussianBlur stdDeviation="0.557896" result="effect1_foregroundBlur_253_291"/>
</filter>
<filter id="filter2_f_253_291" x="23.6086" y="14.746" width="21.7514" height="20.89" filterUnits="userSpaceOnUse" color-interpolation-filters="sRGB">
<feFlood flood-opacity="0" result="BackgroundImageFix"/>
<feBlend mode="normal" in="SourceGraphic" in2="BackgroundImageFix" result="shape"/>
<feGaussianBlur stdDeviation="0.557896" result="effect1_foregroundBlur_253_291"/>
</filter>
<filter id="filter3_f_253_291" x="10.3898" y="-7.33295" width="16.8314" height="16.1871" filterUnits="userSpaceOnUse" color-interpolation-filters="sRGB">
<feFlood flood-opacity="0" result="BackgroundImageFix"/>
<feBlend mode="normal" in="SourceGraphic" in2="BackgroundImageFix" result="shape"/>
<feGaussianBlur stdDeviation="0.557896" result="effect1_foregroundBlur_253_291"/>
</filter>
<radialGradient id="paint0_radial_253_291" cx="0" cy="0" r="1" gradientUnits="userSpaceOnUse" gradientTransform="translate(20.7755 16.1461) rotate(0.6662) scale(18.8465 11.4918)">
<stop stop-color="#086C30"/>
<stop offset="1" stop-color="#5AE090"/>
</radialGradient>
<radialGradient id="paint1_radial_253_291" cx="0" cy="0" r="1" gradientUnits="userSpaceOnUse" gradientTransform="translate(19.2474 12.3677) rotate(180) scale(8.55223 7.70471)">
<stop stop-color="#26BD62"/>
<stop offset="1" stop-color="#5AE090"/>
</radialGradient>
<radialGradient id="paint2_radial_253_291" cx="0" cy="0" r="1" gradientUnits="userSpaceOnUse" gradientTransform="translate(19.2477 12.3676) rotate(180) scale(8.55223 7.70471)">
<stop stop-color="#26BD62"/>
<stop offset="1" stop-color="#5AE090"/>
</radialGradient>
<radialGradient id="paint3_radial_253_291" cx="0" cy="0" r="1" gradientUnits="userSpaceOnUse" gradientTransform="translate(5.29041 25.1909) rotate(-180) scale(9.32923 9.32922)">
<stop stop-color="white"/>
<stop offset="1" stop-color="white" stop-opacity="0"/>
</radialGradient>
<radialGradient id="paint4_radial_253_291" cx="0" cy="0" r="1" gradientUnits="userSpaceOnUse" gradientTransform="translate(19.2477 12.3676) rotate(180) scale(8.55223 7.70471)">
<stop stop-color="#26BD62"/>
<stop offset="1" stop-color="#5AE090"/>
</radialGradient>
<radialGradient id="paint5_radial_253_291" cx="0" cy="0" r="1" gradientUnits="userSpaceOnUse" gradientTransform="translate(34.4843 25.191) rotate(-180) scale(9.32923)">
<stop stop-color="white"/>
<stop offset="1" stop-color="white" stop-opacity="0"/>
</radialGradient>
<radialGradient id="paint6_radial_253_291" cx="0" cy="0" r="1" gradientUnits="userSpaceOnUse" gradientTransform="translate(19.2477 12.3676) rotate(180) scale(8.55223 7.70471)">
<stop stop-color="#26BD62"/>
<stop offset="1" stop-color="#5AE090"/>
</radialGradient>
<radialGradient id="paint7_radial_253_291" cx="0" cy="0" r="1" gradientUnits="userSpaceOnUse" gradientTransform="translate(18.8055 0.760619) rotate(-180) scale(6.97778 6.97778)">
<stop stop-color="white"/>
<stop offset="1" stop-color="white" stop-opacity="0"/>
</radialGradient>
<radialGradient id="paint8_radial_253_291" cx="0" cy="0" r="1" gradientUnits="userSpaceOnUse" gradientTransform="translate(19.2477 12.3676) rotate(180) scale(8.55223 7.70471)">
<stop stop-color="#26BD62"/>
<stop offset="1" stop-color="#5AE090"/>
</radialGradient>
<linearGradient id="paint9_linear_253_291" x1="20.7119" y1="17.3286" x2="20.7119" y2="11.027" gradientUnits="userSpaceOnUse">
<stop stop-color="#B6F2CE"/>
<stop offset="1" stop-color="white" stop-opacity="0.91"/>
</linearGradient>
<radialGradient id="paint10_radial_253_291" cx="0" cy="0" r="1" gradientUnits="userSpaceOnUse" gradientTransform="translate(17.2892 10.5203) rotate(179.999) scale(2.23154)">
<stop stop-color="#ADADAD"/>
<stop offset="1"/>
</radialGradient>
<radialGradient id="paint11_radial_253_291" cx="0" cy="0" r="1" gradientUnits="userSpaceOnUse" gradientTransform="translate(23.4315 10.5208) rotate(179.999) scale(2.23154)">
<stop stop-color="#ADADAD"/>
<stop offset="1"/>
</radialGradient>
<clipPath id="clip0_253_291">
<rect width="37.0732" height="33.6114" fill="white" transform="translate(0.286865 0.0400391)"/>
</clipPath>
</defs>
</svg>
